<svg width="15" height="16" viewBox="0 0 15 16" fill="none" xmlns="http://www.w3.org/2000/svg">
<path d="M5.62488 6.36719H5.98526L6.09922 6.0253L7.49988 1.82333L8.90054 6.0253L9.0145 6.36719H9.37488H13.5745L10 9.22675L9.72779 9.44455L9.83804 9.7753L11.1776 13.7941L7.81223 11.1018L7.49988 10.8519L7.18753 11.1018L3.82213 13.7941L5.16172 9.7753L5.27197 9.44455L4.99973 9.22675L1.42527 6.36719H5.62488Z" fill="white" stroke="#FF6A00"/>
<path d="M5.625 6.36719H5.98538L6.09934 6.0253L7 3.32333V5.86719V8.25781V9.61719V11.2519L3.82225 13.7941L5.16184 9.7753L5.27209 9.44455L4.99985 9.22675L1.42539 6.36719H5.625Z" fill="#FF6A00" stroke="#FF6A00"/>
</svg>
