<svg width="53" height="42" viewBox="0 0 53 42" fill="none" xmlns="http://www.w3.org/2000/svg">
<path d="M10.8 6.8999H49.8C51.4 6.8999 52.8 5.5999 52.8 3.8999C52.8 2.2999 51.5 0.899902 49.8 0.899902H10.8C9.2 0.899902 7.8 2.1999 7.8 3.8999C7.9 5.5999 9.2 6.8999 10.8 6.8999Z" fill="#001868"/>
<path d="M49.8 27.0999H10.8C9.2 27.0999 7.8 28.3999 7.8 30.0999C7.8 31.6999 9.1 33.0999 10.8 33.0999H23.3V38.4999C23.3 39.8999 24.5 41.0999 25.9 41.0999C26.5 41.0999 27 40.8999 27.5 40.5999L37.1 33.1999H49.8C51.4 33.1999 52.8 31.8999 52.8 30.1999C52.8 28.3999 51.5 27.0999 49.8 27.0999Z" fill="#001868"/>
<path d="M39.5 16.9999C39.5 15.1999 38.1 13.7999 36.3 13.7999H3.2C1.4 13.7999 0 15.1999 0 16.9999C0 18.7999 1.4 20.1999 3.2 20.1999H36.3C38.1 20.1999 39.5 18.7999 39.5 16.9999Z" fill="#001868"/>
</svg>
