<svg width="53" height="41" viewBox="0 0 53 41" fill="none" xmlns="http://www.w3.org/2000/svg">
<path d="M10.7998 6H49.7998C51.3998 6 52.7998 4.7 52.7998 3C52.7998 1.4 51.4998 0 49.7998 0H10.7998C9.1998 0 7.7998 1.3 7.7998 3C7.7998 4.6 9.1998 6 10.7998 6Z" fill="#ED1D4F"/>
<path d="M49.7998 26.1001H10.7998C9.1998 26.1001 7.7998 27.4001 7.7998 29.1001C7.7998 30.7001 9.0998 32.1001 10.7998 32.1001H23.2998V37.5001C23.2998 38.9001 24.4998 40.1001 25.8998 40.1001C26.4998 40.1001 26.9998 39.9001 27.4998 39.6001L37.0998 32.2001H49.7998C51.3998 32.2001 52.7998 30.9001 52.7998 29.2001C52.6998 27.4001 51.3998 26.1001 49.7998 26.1001Z" fill="#ED1D4F"/>
<path d="M39.5 16C39.5 14.2 38.1 12.8 36.3 12.8H3.2C1.4 12.8 0 14.3 0 16C0 17.8 1.4 19.2 3.2 19.2H36.3C38.1 19.2 39.5 17.8 39.5 16Z" fill="#ED1D4F"/>
</svg>
