<svg width="169" height="31" viewBox="0 0 169 31" fill="none" xmlns="http://www.w3.org/2000/svg">
<path d="M162.892 10.3507V18.8582C162.892 20.7985 163.786 21.0224 164.531 21.0224H169V24.3806L168.702 24.4552C166.766 24.6791 165.201 24.8284 164.01 24.8284C160.584 24.8284 158.796 23.1119 158.796 19.903V10.3507" fill="#001868"/>
<path d="M158.721 0.574627V10.7239H168.851V7.06716H162.967V0.574627H158.721Z" fill="#ED1D4F"/>
<path d="M148.666 24.8284C146.506 24.8284 144.793 24.3806 143.527 23.4104C142.186 22.4403 141.516 21.097 141.516 19.4552C141.516 17.5149 142.261 16.097 143.751 15.1269C145.166 14.1567 147.326 13.709 150.007 13.709H152.986V13.4104C152.986 12.6642 152.688 11.9925 152.093 11.4701C151.497 10.9478 150.454 10.6493 148.964 10.6493C147.549 10.6493 145.687 10.7239 143.527 10.8731H143.155V7.58955L143.453 7.51493C145.315 7.14179 147.177 6.91791 149.039 6.91791C151.795 6.91791 153.806 7.51493 155.146 8.63433C156.487 9.75373 157.157 11.3955 157.157 13.5597V24.6791H152.986V23.8582C151.869 24.4552 150.379 24.8284 148.666 24.8284ZM150.082 16.9179C148.443 16.9179 147.251 17.1418 146.581 17.5149C145.985 17.8881 145.687 18.4104 145.687 19.0075C145.687 19.6045 145.911 20.0522 146.357 20.4254C146.879 20.8731 147.549 21.0224 148.443 21.0224C149.933 21.0224 151.05 20.7985 151.869 20.2761C152.614 19.8284 152.986 19.1567 152.986 18.3358V16.9179H150.082Z" fill="#001868"/>
<path d="M140.25 24.6045H136.079V14.1567C136.079 12.9627 135.855 12.0672 135.409 11.4701C134.962 10.9478 133.993 10.6493 132.429 10.6493C131.089 10.6493 130.046 10.9478 129.376 11.5448C128.705 12.1418 128.407 13.0373 128.407 14.2313V24.6791H124.236V0.5H128.407V7.96269C129.599 7.29104 131.163 6.91791 133.025 6.91791C135.409 6.91791 137.271 7.4403 138.388 8.5597C139.58 9.60448 140.175 11.4701 140.175 14.0075V24.6045H140.25Z" fill="#001868"/>
<path d="M116.043 24.8284C112.245 24.8284 109.191 23.709 106.956 21.5448C104.722 19.3806 103.605 16.3955 103.605 12.6642C103.605 8.93283 104.722 5.94776 106.956 3.85821C109.191 1.76866 112.319 0.649254 116.192 0.649254C118.352 0.649254 120.587 0.873134 122.821 1.39552L123.119 1.47015V5.42537L122.672 5.35075C120.289 4.75373 118.129 4.45522 116.192 4.45522C113.585 4.45522 111.5 5.20149 110.01 6.54478C108.521 7.96269 107.776 9.97761 107.776 12.5896C107.776 15.2015 108.521 17.291 110.01 18.7836C111.5 20.2761 113.511 21.0224 116.043 21.0224C118.054 21.0224 120.289 20.7239 122.672 20.2015L123.119 20.1269V24.0075L122.821 24.0821C120.587 24.5299 118.278 24.8284 116.043 24.8284Z" fill="#001868"/>
<path d="M94.3689 24.7537C91.911 24.7537 89.9 24.2313 88.5593 23.1866C87.1441 22.1418 86.3993 20.2761 86.3993 17.6642V7.06716H90.5703V17.5149C90.5703 18.709 90.7937 19.6045 91.3151 20.2015C91.762 20.7985 92.8048 21.0224 94.3689 21.0224C95.933 21.0224 96.9013 20.7239 97.4227 20.2015C97.944 19.6045 98.1675 18.709 98.1675 17.5149V7.06716H102.338V17.6642C102.338 20.2015 101.594 22.0672 100.178 23.1866C98.8378 24.2313 96.9013 24.7537 94.3689 24.7537Z" fill="#ED1D4F"/>
<path d="M76.3442 24.8284C73.8118 24.8284 71.8008 24.0821 70.2367 22.6642C68.6725 21.1716 67.8532 18.9328 67.8532 16.0224C67.8532 13.1119 68.5981 10.7985 70.0132 9.30597C71.4284 7.81343 73.4394 6.99254 75.8228 6.99254C77.9083 6.99254 79.4725 7.4403 80.6642 8.26119V0.574627H84.8352V16.0224C84.8352 18.9328 84.0159 21.1716 82.4517 22.6642C80.8876 24.0821 78.8021 24.8284 76.3442 24.8284ZM76.3442 10.6493C74.7801 10.6493 73.6628 11.097 73.067 11.9925C72.3967 12.8881 72.0242 14.2313 72.0242 16.0224C72.0242 17.7388 72.3967 19.0821 73.067 19.903C73.7373 20.7239 74.8546 21.1716 76.4187 21.1716C77.9828 21.1716 79.0256 20.7239 79.6959 19.903C80.3662 19.0821 80.7387 17.7388 80.7387 16.0224C80.7387 13.9328 80.4407 12.5149 79.7704 11.7687C78.9511 11.0224 77.9083 10.6493 76.3442 10.6493Z" fill="#ED1D4F"/>
<path d="M66.9595 24.6045H56.383C54.8189 24.6045 53.5527 24.1567 52.5844 23.3358C51.6161 22.5149 51.0948 21.1716 51.0948 19.5299V3.26119C51.0948 1.84328 52.212 0.723881 53.6272 0.723881H66.9595V4.60448H55.2658V10.7985H64.2036V14.6791H55.2658V19.6045C55.2658 19.9776 55.4147 20.2761 55.6382 20.5C55.9361 20.7239 56.383 20.8731 56.9788 20.8731H66.885V24.6045H66.9595Z" fill="#ED1D4F"/>
<path d="M8.04407 5.05224H37.0921C38.2838 5.05224 39.3266 4.08209 39.3266 2.81343C39.3266 1.6194 38.3583 0.574627 37.0921 0.574627H8.04407C6.85236 0.574627 5.80961 1.54478 5.80961 2.81343C5.80961 4.08209 6.85236 5.05224 8.04407 5.05224Z" fill="#ED1D4F"/>
<path d="M37.0921 20.0522H8.04407C6.85236 20.0522 5.80961 21.0224 5.80961 22.291C5.80961 23.4851 6.77788 24.5299 8.04407 24.5299H17.3543V28.5597C17.3543 29.6045 18.2481 30.5 19.2909 30.5C19.7378 30.5 20.1102 30.3507 20.4826 30.1269L27.6329 24.6045H37.0921C38.2838 24.6045 39.3266 23.6343 39.3266 22.3657C39.2521 21.097 38.2838 20.0522 37.0921 20.0522Z" fill="#ED1D4F"/>
<path d="M29.4205 12.5896C29.4205 11.2463 28.3777 10.2015 27.037 10.2015H2.38343C1.04275 10.2015 0 11.2463 0 12.5896C0 13.9328 1.04275 14.9776 2.38343 14.9776H27.037C28.3777 14.903 29.4205 13.8582 29.4205 12.5896Z" fill="#ED1D4F"/>
</svg>
