<svg width="227" height="41" viewBox="0 0 227 41" fill="none" xmlns="http://www.w3.org/2000/svg">
<path d="M218.7 13.2V24.6C218.7 27.2 219.9 27.5 220.9 27.5H226.9V31.9L226.5 32C223.9 32.3 221.8 32.5 220.2 32.5C215.6 32.5 213.2 30.2 213.2 25.9V13.2" fill="white"/>
<path d="M213.1 0V13.7H226.7V8.7H218.8V0H213.1Z" fill="white"/>
<path d="M199.6 32.6C196.7 32.6 194.4 32 192.7 30.7C190.9 29.4 190 27.6 190 25.4C190 22.8 191 20.9 193 19.6C194.9 18.3 197.8 17.7 201.4 17.7H205.4V17.3C205.4 16.3 205 15.4 204.2 14.7C203.4 14 202 13.6 200 13.6C198.1 13.6 195.6 13.7 192.7 13.9H192.2V9.5L192.6 9.4C195.1 8.9 197.6 8.6 200.1 8.6C203.8 8.6 206.5 9.4 208.3 10.9C210.1 12.4 211 14.6 211 17.5V32.4H205.5V31.3C203.9 32.1 201.9 32.6 199.6 32.6ZM201.5 22C199.3 22 197.7 22.3 196.8 22.8C196 23.3 195.6 24 195.6 24.8C195.6 25.6 195.9 26.2 196.5 26.7C197.2 27.3 198.1 27.5 199.3 27.5C201.3 27.5 202.8 27.2 203.9 26.5C204.9 25.9 205.4 25 205.4 23.9V21.8H201.5V22Z" fill="white"/>
<path d="M188.4 32.3H182.8V18.3C182.8 16.7 182.5 15.5 181.9 14.7C181.3 14 180 13.6 177.9 13.6C176.1 13.6 174.7 14 173.8 14.8C172.9 15.6 172.5 16.8 172.5 18.4V32.4H166.9V0H172.5V10C174.1 9.1 176.2 8.6 178.7 8.6C181.9 8.6 184.4 9.3 185.9 10.8C187.5 12.2 188.3 14.7 188.3 18.1V32.3H188.4Z" fill="white"/>
<path d="M155.8 32.5C150.7 32.5 146.6 31 143.6 28.1C140.6 25.2 139.1 21.2 139.1 16.2C139.1 11.2 140.6 7.2 143.6 4.4C146.6 1.6 150.8 0.100002 156 0.100002C158.9 0.100002 161.9 0.400002 164.9 1.1L165.3 1.2V6.5L164.7 6.4C161.5 5.6 158.6 5.2 156 5.2C152.5 5.2 149.7 6.2 147.7 8C145.7 9.9 144.7 12.6 144.7 16.1C144.7 19.6 145.7 22.4 147.7 24.4C149.7 26.4 152.4 27.4 155.8 27.4C158.5 27.4 161.5 27 164.7 26.3L165.3 26.2V31.4L164.9 31.5C161.9 32.2 158.8 32.5 155.8 32.5Z" fill="white"/>
<path d="M126.7 32.4C123.4 32.4 120.7 31.7 118.9 30.3C117 28.9 116 26.4 116 22.9V8.8H121.6V22.8C121.6 24.4 121.9 25.6 122.6 26.4C123.2 27.2 124.6 27.5 126.7 27.5C128.8 27.5 130.1 27.1 130.8 26.4C131.5 25.6 131.8 24.4 131.8 22.8V8.8H137.4V23C137.4 26.4 136.4 28.9 134.5 30.4C132.7 31.7 130.1 32.4 126.7 32.4Z" fill="white"/>
<path d="M102.5 32.6C99.1 32.6 96.4 31.6 94.3 29.7C92.2 27.7 91.1 24.7 91.1 20.8C91.1 16.9 92.1 13.8 94 11.8C95.9 9.8 98.6 8.7 101.8 8.7C104.6 8.7 106.7 9.3 108.3 10.4V0H113.9V20.7C113.9 24.6 112.8 27.6 110.7 29.6C108.6 31.6 105.9 32.6 102.5 32.6ZM102.5 13.6C100.4 13.6 98.9 14.2 98.1 15.4C97.2 16.6 96.7 18.4 96.7 20.8C96.7 23.1 97.2 24.9 98.1 26C99 27.1 100.5 27.7 102.6 27.7C104.7 27.7 106.1 27.1 107 26C107.9 24.9 108.4 23.1 108.4 20.8C108.4 18 108 16.1 107.1 15.1C106.1 14.1 104.6 13.6 102.5 13.6Z" fill="white"/>
<path d="M89.9 32.3H75.7C73.6 32.3 71.9 31.7 70.6 30.6C69.3 29.5 68.6 27.7 68.6 25.5V3.7C68.6 1.8 70.1 0.300003 72 0.300003H89.9V5.5H74.3V13.8H86.3V18.9H74.3V25.5C74.3 26 74.5 26.4 74.8 26.7C75.2 27 75.8 27.2 76.6 27.2H89.9V32.3Z" fill="white"/>
<path d="M10.8 6.1H49.8C51.4 6.1 52.8 4.8 52.8 3.1C52.8 1.5 51.5 0.100002 49.8 0.100002H10.8C9.2 0.100002 7.8 1.4 7.8 3.1C7.8 4.7 9.2 6.1 10.8 6.1Z" fill="white"/>
<path d="M49.8 26.2H10.8C9.2 26.2 7.8 27.5 7.8 29.2C7.8 30.8 9.1 32.2 10.8 32.2H23.3V37.6C23.3 39 24.5 40.2 25.9 40.2C26.5 40.2 27 40 27.5 39.7L37.1 32.3H49.8C51.4 32.3 52.8 31 52.8 29.3C52.8 27.5 51.4 26.2 49.8 26.2Z" fill="white"/>
<path d="M39.5 16.1C39.5 14.3 38.1 12.9 36.3 12.9H3.2C1.4 12.9 0 14.3 0 16.1C0 17.9 1.4 19.3 3.2 19.3H36.3C38.1 19.3 39.5 17.9 39.5 16.1Z" fill="white"/>
</svg>
