<svg width="227" height="41" viewBox="0 0 227 41" fill="none" xmlns="http://www.w3.org/2000/svg">
<path d="M218.7 13.2V24.6C218.7 27.2 219.9 27.5 220.9 27.5H226.9V32L226.5 32.1C223.9 32.4 221.8 32.6 220.2 32.6C215.6 32.6 213.2 30.3 213.2 26V13.2" fill="#001868"/>
<path d="M213.1 0.1V13.7H226.7V8.8H218.8V0.1H213.1Z" fill="#ED1D4F"/>
<path d="M199.6 32.6C196.7 32.6 194.4 32 192.7 30.7C190.9 29.4 190 27.6 190 25.4C190 22.8 191 20.9 193 19.6C194.9 18.3 197.8 17.7 201.4 17.7H205.4V17.3C205.4 16.3 205 15.4 204.2 14.7C203.4 14 202 13.6 200 13.6C198.1 13.6 195.6 13.7 192.7 13.9H192.2V9.5L192.6 9.4C195.1 8.9 197.6 8.6 200.1 8.6C203.8 8.6 206.5 9.4 208.3 10.9C210.1 12.4 211 14.6 211 17.5V32.4H205.4V31.3C203.9 32.1 201.9 32.6 199.6 32.6ZM201.5 22C199.3 22 197.7 22.3 196.8 22.8C196 23.3 195.6 24 195.6 24.8C195.6 25.6 195.9 26.2 196.5 26.7C197.2 27.3 198.1 27.5 199.3 27.5C201.3 27.5 202.8 27.2 203.9 26.5C204.9 25.9 205.4 25 205.4 23.9V22H201.5Z" fill="#001868"/>
<path d="M188.3 32.3H182.7V18.3C182.7 16.7 182.4 15.5 181.8 14.7C181.2 14 179.9 13.6 177.8 13.6C176 13.6 174.6 14 173.7 14.8C172.8 15.6 172.4 16.8 172.4 18.4V32.4H166.8V0H172.4V10C174 9.1 176.1 8.6 178.6 8.6C181.8 8.6 184.3 9.3 185.8 10.8C187.4 12.2 188.2 14.7 188.2 18.1V32.3H188.3Z" fill="#001868"/>
<path d="M155.8 32.6C150.7 32.6 146.6 31.1 143.6 28.2C140.6 25.3 139.1 21.3 139.1 16.3C139.1 11.3 140.6 7.3 143.6 4.5C146.6 1.7 150.8 0.2 156 0.2C158.9 0.2 161.9 0.5 164.9 1.2L165.3 1.3V6.6L164.7 6.5C161.5 5.7 158.6 5.3 156 5.3C152.5 5.3 149.7 6.3 147.7 8.1C145.7 10 144.7 12.7 144.7 16.2C144.7 19.7 145.7 22.5 147.7 24.5C149.7 26.5 152.4 27.5 155.8 27.5C158.5 27.5 161.5 27.1 164.7 26.4L165.3 26.3V31.5L164.9 31.6C161.9 32.2 158.8 32.6 155.8 32.6Z" fill="#001868"/>
<path d="M126.7 32.5C123.4 32.5 120.7 31.8 118.9 30.4C117 29 116 26.5 116 23V8.8H121.6V22.8C121.6 24.4 121.9 25.6 122.6 26.4C123.2 27.2 124.6 27.5 126.7 27.5C128.8 27.5 130.1 27.1 130.8 26.4C131.5 25.6 131.8 24.4 131.8 22.8V8.8H137.4V23C137.4 26.4 136.4 28.9 134.5 30.4C132.7 31.8 130.1 32.5 126.7 32.5Z" fill="#ED1D4F"/>
<path d="M102.5 32.6C99.1 32.6 96.4 31.6 94.3 29.7C92.2 27.7 91.1 24.7 91.1 20.8C91.1 16.9 92.1 13.8 94 11.8C95.9 9.8 98.6 8.7 101.8 8.7C104.6 8.7 106.7 9.3 108.3 10.4V0.1H113.9V20.8C113.9 24.7 112.8 27.7 110.7 29.7C108.6 31.6 105.8 32.6 102.5 32.6ZM102.5 13.6C100.4 13.6 98.9 14.2 98.1 15.4C97.2 16.6 96.7 18.4 96.7 20.8C96.7 23.1 97.2 24.9 98.1 26C99 27.1 100.5 27.7 102.6 27.7C104.7 27.7 106.1 27.1 107 26C107.9 24.9 108.4 23.1 108.4 20.8C108.4 18 108 16.1 107.1 15.1C106 14.1 104.6 13.6 102.5 13.6Z" fill="#ED1D4F"/>
<path d="M89.9 32.3H75.7C73.6 32.3 71.9 31.7 70.6 30.6C69.3 29.5 68.6 27.7 68.6 25.5V3.7C68.6 1.8 70.1 0.3 72 0.3H89.9V5.5H74.2V13.8H86.2V19H74.2V25.6C74.2 26.1 74.4 26.5 74.7 26.8C75.1 27.1 75.7 27.3 76.5 27.3H89.8V32.3H89.9Z" fill="#ED1D4F"/>
<path d="M10.8 6.1H49.8C51.4 6.1 52.8 4.8 52.8 3.1C52.8 1.5 51.5 0.1 49.8 0.1H10.8C9.2 0.1 7.8 1.4 7.8 3.1C7.8 4.8 9.2 6.1 10.8 6.1Z" fill="#ED1D4F"/>
<path d="M49.8 26.2H10.8C9.2 26.2 7.8 27.5 7.8 29.2C7.8 30.8 9.1 32.2 10.8 32.2H23.3V37.6C23.3 39 24.5 40.2 25.9 40.2C26.5 40.2 27 40 27.5 39.7L37.1 32.3H49.8C51.4 32.3 52.8 31 52.8 29.3C52.7 27.6 51.4 26.2 49.8 26.2Z" fill="#ED1D4F"/>
<path d="M39.5 16.2C39.5 14.4 38.1 13 36.3 13H3.2C1.4 13 0 14.4 0 16.2C0 18 1.4 19.4 3.2 19.4H36.3C38.1 19.3 39.5 17.9 39.5 16.2Z" fill="#ED1D4F"/>
</svg>
