<svg width="16" height="16" viewBox="0 0 16 16" fill="none" xmlns="http://www.w3.org/2000/svg">
<path d="M7 13.9995C3.14 13.9995 0 10.8595 0 6.99951C0 3.13951 3.14 -0.000488281 7 -0.000488281C10.86 -0.000488281 14 3.13951 14 6.99951C14 10.8595 10.86 13.9995 7 13.9995ZM7 1.99951C4.243 1.99951 2 4.24251 2 6.99951C2 9.75651 4.243 11.9995 7 11.9995C9.757 11.9995 12 9.75651 12 6.99951C12 4.24251 9.757 1.99951 7 1.99951Z" fill="white"/>
<path d="M15.707 14.2925L13.314 11.8995C12.9035 12.428 12.4285 12.903 11.9 13.3135L14.293 15.7065C14.3857 15.7997 14.4958 15.8737 14.6171 15.9241C14.7385 15.9746 14.8686 16.0006 15 16.0006C15.1314 16.0006 15.2615 15.9746 15.3829 15.9241C15.5042 15.8737 15.6143 15.7997 15.707 15.7065C15.7999 15.6137 15.8737 15.5035 15.924 15.3822C15.9743 15.2609 16.0002 15.1309 16.0002 14.9995C16.0002 14.8682 15.9743 14.7382 15.924 14.6168C15.8737 14.4955 15.7999 14.3853 15.707 14.2925Z" fill="white"/>
</svg>
