<svg width="16" height="20" viewBox="0 0 16 20" fill="none" xmlns="http://www.w3.org/2000/svg">
<path d="M12.4503 9.11956C12.3702 9.08116 12.2888 9.04421 12.2064 9.00882C12.0629 6.36383 10.6176 4.84957 8.19081 4.83408C8.17981 4.83401 8.16888 4.83401 8.15788 4.83401C6.70635 4.83401 5.49914 5.45359 4.7561 6.58104L6.09076 7.49659C6.64583 6.65443 7.51697 6.47489 8.15852 6.47489C8.16593 6.47489 8.17337 6.47489 8.18071 6.47496C8.97976 6.48006 9.58272 6.71238 9.97297 7.16544C10.257 7.49528 10.4469 7.95109 10.541 8.52633C9.83253 8.40592 9.06635 8.3689 8.24729 8.41586C5.94001 8.54876 4.45671 9.89441 4.55633 11.7642C4.60689 12.7127 5.0794 13.5287 5.88677 14.0617C6.56939 14.5123 7.44857 14.7327 8.36229 14.6828C9.56896 14.6166 10.5156 14.1562 11.176 13.3144C11.6775 12.6751 11.9948 11.8467 12.1348 10.8028C12.7099 11.1498 13.1361 11.6065 13.3715 12.1556C13.7717 13.0888 13.795 14.6224 12.5437 15.8727C11.4473 16.968 10.1294 17.4419 8.13769 17.4565C5.92834 17.4401 4.25744 16.7316 3.17107 15.3505C2.15377 14.0573 1.62802 12.1895 1.60841 9.79872C1.62802 7.40796 2.15377 5.54006 3.17107 4.24687C4.25744 2.86584 5.92831 2.1573 8.13766 2.14089C10.363 2.15743 12.0631 2.86937 13.191 4.25707C13.7441 4.93758 14.1611 5.79338 14.436 6.7912L16 6.37391C15.6668 5.1457 15.1425 4.08734 14.429 3.20961C12.983 1.43052 10.8681 0.518902 8.14311 0.5H8.13221C5.41279 0.518837 3.32159 1.43392 1.91673 3.21981C0.666592 4.80903 0.0217358 7.02031 6.78029e-05 9.79218L0 9.79872L6.78029e-05 9.80526C0.0217358 12.5771 0.666592 14.7885 1.91673 16.3777C3.32159 18.1635 5.41279 19.0787 8.13221 19.0974H8.14311C10.5608 19.0807 12.265 18.4477 13.6689 17.045C15.5057 15.21 15.4504 12.9098 14.845 11.4978C14.4107 10.4852 13.5826 9.66275 12.4503 9.11956ZM8.27591 13.0443C7.26467 13.1012 6.2141 12.6473 6.1623 11.6751C6.1239 10.9543 6.6753 10.1499 8.33797 10.0541C8.52838 10.0431 8.71523 10.0378 8.89878 10.0378C9.50271 10.0378 10.0677 10.0964 10.5814 10.2087C10.3898 12.6014 9.26598 12.9899 8.27591 13.0443Z" fill="#737373"/>
</svg>
