<svg width="13" height="18" viewBox="0 0 13 18" fill="none" xmlns="http://www.w3.org/2000/svg">
<path d="M6.30013 8.64167C6.27513 8.64167 6.25846 8.64167 6.23346 8.64167C6.1918 8.63333 6.13346 8.63333 6.08346 8.64167C3.6668 8.56667 1.8418 6.66667 1.8418 4.325C1.8418 1.94167 3.78346 0 6.1668 0C8.55013 0 10.4918 1.94167 10.4918 4.325C10.4835 6.66667 8.65013 8.56667 6.32513 8.64167C6.3168 8.64167 6.30846 8.64167 6.30013 8.64167ZM6.1668 1.25C4.47513 1.25 3.0918 2.63333 3.0918 4.325C3.0918 5.99167 4.3918 7.33333 6.05013 7.39167C6.0918 7.38333 6.20846 7.38333 6.3168 7.39167C7.95013 7.31667 9.23346 5.975 9.2418 4.325C9.2418 2.63333 7.85846 1.25 6.1668 1.25Z" fill="#001868"/>
<path d="M6.30833 17.75C4.675 17.75 3.03333 17.3334 1.79167 16.5C0.633333 15.7334 0 14.6834 0 13.5417C0 12.4 0.633333 11.3417 1.79167 10.5667C4.29167 8.90835 8.34167 8.90835 10.825 10.5667C11.975 11.3334 12.6167 12.3834 12.6167 13.525C12.6167 14.6667 11.9833 15.725 10.825 16.5C9.575 17.3334 7.94167 17.75 6.30833 17.75ZM2.48333 11.6167C1.68333 12.15 1.25 12.8334 1.25 13.55C1.25 14.2584 1.69167 14.9417 2.48333 15.4667C4.55833 16.8584 8.05833 16.8584 10.1333 15.4667C10.9333 14.9334 11.3667 14.25 11.3667 13.5334C11.3667 12.825 10.925 12.1417 10.1333 11.6167C8.05833 10.2334 4.55833 10.2334 2.48333 11.6167Z" fill="#001868"/>
</svg>
